<?xml version="1.0" encoding="UTF-8"?>
<svg width="16px" height="16px" viewBox="0 0 16 16" version="1.1" xmlns="http://www.w3.org/2000/svg" xmlns:xlink="http://www.w3.org/1999/xlink">
    <!-- Generator: sketchtool 51.3 (57544) - http://www.bohemiancoding.com/sketch -->
    <title>85448840-E64D-49F9-9889-5DF74B0A81A7</title>
    <desc>Created with sketchtool.</desc>
    <defs></defs>
    <g id="Desktop" stroke="none" stroke-width="1" fill="none" fill-rule="evenodd">
        <g id="Newsletter_V2_field-filled-Copy" transform="translate(-148.000000, -788.000000)" fill-rule="nonzero">
            <g id="social-media-icons" transform="translate(64.000000, 787.000000)">
                <g id="icon/twitter/color" transform="translate(83.000000, 0.000000)">
                    <rect id="Rectangle-7" x="0" y="0" width="18" height="18"></rect>
                    <rect id="Rectangle-4" stroke="#03A9F4" stroke-width="0.6" x="1.3" y="1.3" width="15.4" height="15.4" rx="4"></rect>
                    <path d="M15,5.33550539 C14.2451477,5.3709277 14.2616272,5.36803798 14.1763001,5.37530886 L14.6233521,4.07540342 C14.6233521,4.07540342 13.2279053,4.59806889 12.8741455,4.69156514 C11.9450684,3.84133654 10.5640869,3.80377027 9.57678223,4.42160987 C8.76828002,4.92768277 8.33432006,5.79674111 8.47906495,6.81252236 C6.9055481,6.59020079 5.57977294,5.83076517 4.53305053,4.55052841 L4.20199584,4.14568875 L3.95462037,4.60822949 C3.64196777,5.19269757 3.53814698,5.86096734 3.66220092,6.48989973 C3.71310424,6.74792327 3.79962159,6.99401508 3.91946412,7.22444651 L3.63546752,7.11240015 L3.60177612,7.59554178 C3.56762695,8.08632716 3.72811889,8.65923637 4.03115845,9.12792942 C4.1164856,9.25992412 4.22634888,9.40487594 4.36560059,9.54787019 L4.21884155,9.52493891 L4.3979187,10.0785523 C4.63330078,10.8059214 5.12219238,11.36867 5.75665284,11.6815049 C5.12301635,11.955282 4.61114503,12.1299699 3.76977539,12.4117637 L3,12.6694144 L3.71099855,13.065212 C3.98208619,13.2161297 4.94000245,13.7201519 5.88647461,13.8713492 C7.99035645,14.2073018 10.3591003,13.9337111 11.9537659,12.4714223 C13.296936,11.2397514 13.7376709,9.48774549 13.6461182,7.66452206 C13.6322937,7.38850772 13.706543,7.12507761 13.8552246,6.92289082 C14.1530456,6.51805113 14.9981689,5.33820867 15,5.33550539 Z M13.2929993,6.49409447 C13.0460815,6.82976743 12.9223938,7.25847056 12.9445496,7.70106297 C13.0369263,9.5401332 12.5454712,10.9663471 11.4837341,11.9399013 C10.2434693,13.077237 8.24295045,13.5236513 5.9953308,13.1646741 C5.58828736,13.0997022 5.16760254,12.9541911 4.81942748,12.8088664 C5.5248413,12.5617492 6.06958008,12.3414784 6.9493103,11.9175293 L8.17739869,11.3256971 L6.82150268,11.2373278 C6.17202759,11.1950074 5.63122559,10.8745288 5.2987976,10.3541938 C5.47531127,10.3437535 5.64550781,10.3146699 5.81497193,10.2665701 L7.1081543,9.89985606 L5.8041687,9.57471657 C5.17053223,9.41671443 4.8093567,9.03070451 4.61791992,8.73464859 C4.49221802,8.54010555 4.4100952,8.34080848 4.36083984,8.15707856 C4.49157715,8.19278052 4.64401245,8.21822865 4.88983153,8.24302427 L6.09677123,8.36457872 L5.14050293,7.60504986 C4.45147706,7.05786845 4.17535402,6.23579127 4.37777709,5.44550098 C6.52816772,7.7164437 9.05300904,7.54576413 9.30715943,7.60579559 C9.2512207,7.05255511 9.24975586,7.05125006 9.23510742,6.99858269 C8.90963745,5.82712971 9.6229248,5.23231461 9.94464113,5.03096676 C10.6166382,4.61046669 11.6833191,4.5470794 12.4221497,5.23986515 C12.5817261,5.38938457 12.7975159,5.44820425 12.9994812,5.39712156 C13.1807556,5.35125899 13.3295288,5.30269315 13.4751892,5.24983933 L13.1719665,6.1314819 L13.5590515,6.13176155 C13.4859924,6.23150332 13.3983765,6.35091378 13.2929993,6.49409447 Z" id="Shape" fill="#03A9F4"></path>
                </g>
            </g>
        </g>
    </g>
</svg>