<?xml version="1.0" encoding="UTF-8"?>
<svg width="16px" height="16px" viewBox="0 0 16 16" version="1.1" xmlns="http://www.w3.org/2000/svg" xmlns:xlink="http://www.w3.org/1999/xlink">
    <!-- Generator: sketchtool 51.3 (57544) - http://www.bohemiancoding.com/sketch -->
    <title>F2C9FC88-5753-484D-9CAB-A2C99F75905F</title>
    <desc>Created with sketchtool.</desc>
    <defs></defs>
    <g id="Desktop" stroke="none" stroke-width="1" fill="none" fill-rule="evenodd">
        <g id="Newsletter_V2_field-filled-Copy" transform="translate(-65.000000, -788.000000)" fill-rule="nonzero">
            <g id="social-media-icons" transform="translate(64.000000, 787.000000)">
                <g id="icon/facebook/color">
                    <rect id="Rectangle-2" x="0" y="0" width="18" height="18"></rect>
                    <path d="M3.34375,17 L8.5625,17 L8.5625,11.3125 L6.6875,11.3125 L6.6875,9.4375 L8.5625,9.4375 L8.5625,7.09375 C8.5625,5.80139159 9.61389159,4.75 10.90625,4.75 L13.25,4.75 L13.25,6.625 L11.375,6.625 C10.8580322,6.625 10.4375,7.04553222 10.4375,7.5625 L10.4375,9.4375 L13.1654053,9.4375 L12.8529053,11.3125 L10.4375,11.3125 L10.4375,17 L14.65625,17 C15.9486084,17 17,15.9486084 17,14.65625 L17,3.34375 C17,2.05139159 15.9486084,1 14.65625,1 L3.34375,1 C2.05139159,1 1,2.05139159 1,3.34375 L1,14.65625 C1,15.9486084 2.05139159,17 3.34375,17 Z M1.9375,3.34375 C1.9375,2.56835938 2.56835938,1.9375 3.34375,1.9375 L14.65625,1.9375 C15.4316406,1.9375 16.0625,2.56835938 16.0625,3.34375 L16.0625,14.65625 C16.0625,15.4316406 15.4316406,16.0625 14.65625,16.0625 L11.375,16.0625 L11.375,12.25 L13.6470947,12.25 L14.2720947,8.5 L11.375,8.5 L11.375,7.5625 L14.1875,7.5625 L14.1875,3.8125 L10.90625,3.8125 C9.09692381,3.8125 7.625,5.28442381 7.625,7.09375 L7.625,8.5 L5.75,8.5 L5.75,12.25 L7.625,12.25 L7.625,16.0625 L3.34375,16.0625 C2.56835938,16.0625 1.9375,15.4316406 1.9375,14.65625 L1.9375,3.34375 Z" id="Shape" fill="#4267B2"></path>
                </g>
            </g>
        </g>
    </g>
</svg>