<?xml version="1.0" encoding="UTF-8"?>
<svg width="16px" height="16px" viewBox="0 0 16 16" version="1.1" xmlns="http://www.w3.org/2000/svg" xmlns:xlink="http://www.w3.org/1999/xlink">
    <!-- Generator: sketchtool 51.3 (57544) - http://www.bohemiancoding.com/sketch -->
    <title>06FABD3E-E69A-4014-B401-E43743BCE289</title>
    <desc>Created with sketchtool.</desc>
    <defs></defs>
    <g id="Desktop" stroke="none" stroke-width="1" fill="none" fill-rule="evenodd">
        <g id="Newsletter_V2_field-filled-Copy" transform="translate(-191.000000, -788.000000)" fill-rule="nonzero">
            <g id="social-media-icons" transform="translate(64.000000, 787.000000)">
                <g id="icon/linkedin/color" transform="translate(126.000000, 0.000000)">
                    <rect id="Rectangle" x="0" y="0" width="18" height="18"></rect>
                    <g id="linkedin" transform="translate(1.000000, 1.000000)" fill="#007AB9">
                        <path d="M13.65625,0 L2.34375,0 C1.05139159,0 0,1.05139159 0,2.34375 L0,13.65625 C0,14.9486084 1.05139159,16 2.34375,16 L13.65625,16 C14.9486084,16 16,14.9486084 16,13.65625 L16,2.34375 C16,1.05139159 14.9486084,0 13.65625,0 Z M15.0625,13.65625 C15.0625,14.4316406 14.4316406,15.0625 13.65625,15.0625 L2.34375,15.0625 C1.56835938,15.0625 0.9375,14.4316406 0.9375,13.65625 L0.9375,2.34375 C0.9375,1.56835938 1.56835938,0.9375 2.34375,0.9375 L13.65625,0.9375 C14.4316406,0.9375 15.0625,1.56835938 15.0625,2.34375 L15.0625,13.65625 Z" id="Shape"></path>
                        <path d="M2.84375,13.1875 L5.65625,13.1875 L5.65625,6.5625 L2.84375,6.5625 L2.84375,13.1875 Z M3.78125,7.5 L4.71875,7.5 L4.71875,12.25 L3.78125,12.25 L3.78125,7.5 Z" id="Shape"></path>
                        <path d="M10.3464356,6.5625 C10.3455811,6.5625 10.3446045,6.5625 10.34375,6.5625 C10.0196533,6.5625 9.7039795,6.61669922 9.40625,6.72192381 L9.40625,6.5625 L6.59375,6.5625 L6.59375,13.1875 L9.40625,13.1875 L9.40625,9.84375 C9.40625,9.58532716 9.61657716,9.375 9.875,9.375 C10.1334228,9.375 10.34375,9.58532716 10.34375,9.84375 L10.34375,13.1875 L13.15625,13.1875 L13.15625,9.52148438 C13.15625,8.00439453 11.9255371,6.56396484 10.3464356,6.5625 Z M12.21875,12.25 L11.28125,12.25 L11.28125,9.84375 C11.28125,9.06835938 10.6503906,8.4375 9.875,8.4375 C9.09960938,8.4375 8.46887206,9.06835938 8.46875,9.84362794 L8.46875,12.25 L7.53125,12.25 L7.53125,7.5 L8.46875,7.5 L8.46875,8.43811034 L9.21899413,7.87463378 C9.54528809,7.62951659 9.93420409,7.5 10.34375,7.5 L10.3455811,7.5 C11.3433838,7.50097656 12.21875,8.44555663 12.21875,9.52148438 L12.21875,12.25 Z" id="Shape"></path>
                        <path d="M2.84375,5.625 L5.65625,5.625 L5.65625,2.8125 L2.84375,2.8125 L2.84375,5.625 Z M3.78125,3.75 L4.71875,3.75 L4.71875,4.6875 L3.78125,4.6875 L3.78125,3.75 Z" id="Shape"></path>
                    </g>
                </g>
            </g>
        </g>
    </g>
</svg>