<?xml version="1.0" encoding="UTF-8"?>
<svg width="16px" height="16px" viewBox="0 0 16 16" version="1.1" xmlns="http://www.w3.org/2000/svg" xmlns:xlink="http://www.w3.org/1999/xlink">
    <!-- Generator: sketchtool 51.3 (57544) - http://www.bohemiancoding.com/sketch -->
    <title>A161BAB1-3060-4431-A7BC-05D5FC85F827</title>
    <desc>Created with sketchtool.</desc>
    <defs>
        <linearGradient x1="50%" y1="99.7089109%" x2="50%" y2="0.776721582%" id="linearGradient-1">
            <stop stop-color="#E09B3D" offset="0%"></stop>
            <stop stop-color="#C74C4D" offset="30%"></stop>
            <stop stop-color="#C21975" offset="60%"></stop>
            <stop stop-color="#7024C4" offset="100%"></stop>
        </linearGradient>
    </defs>
    <g id="Desktop" stroke="none" stroke-width="1" fill="none" fill-rule="evenodd">
        <g id="Newsletter_V2_field-filled-Copy" transform="translate(-107.000000, -788.000000)" fill-rule="nonzero">
            <g id="social-media-icons" transform="translate(64.000000, 787.000000)">
                <g id="icon.instagram/color" transform="translate(42.000000, 0.000000)">
                    <rect id="Rectangle-3" x="0" y="0" width="18" height="18"></rect>
                    <path d="M3.34375,17 L14.65625,17 C15.9486084,17 17,15.9486084 17,14.65625 L17,3.34375 C17,2.05139159 15.9486084,1 14.65625,1 L3.34375,1 C2.05139159,1 1,2.05139159 1,3.34375 L1,14.65625 C1,15.9486084 2.05139159,17 3.34375,17 Z M1.9375,3.34375 C1.9375,2.56835937 2.56835937,1.9375 3.34375,1.9375 L14.65625,1.9375 C15.4316406,1.9375 16.0625,2.56835937 16.0625,3.34375 L16.0625,14.65625 C16.0625,15.4316406 15.4316406,16.0625 14.65625,16.0625 L3.34375,16.0625 C2.56835937,16.0625 1.9375,15.4316406 1.9375,14.65625 L1.9375,3.34375 Z M9,13.21875 C11.3261719,13.21875 13.21875,11.3261719 13.21875,9 C13.21875,6.67382812 11.3261719,4.78125 9,4.78125 C6.67382812,4.78125 4.78125,6.67382812 4.78125,9 C4.78125,11.3261719 6.67382812,13.21875 9,13.21875 Z M9,5.71875 C10.8093262,5.71875 12.28125,7.19067381 12.28125,9 C12.28125,10.8093262 10.8093262,12.28125 9,12.28125 C7.19067381,12.28125 5.71875,10.8093262 5.71875,9 C5.71875,7.19067381 7.19067381,5.71875 9,5.71875 Z M13.6875,5.71875 C14.4628906,5.71875 15.09375,5.08789062 15.09375,4.3125 C15.09375,3.53710937 14.4628906,2.90625 13.6875,2.90625 C12.9121094,2.90625 12.28125,3.53710937 12.28125,4.3125 C12.28125,5.08789062 12.9121094,5.71875 13.6875,5.71875 Z M13.6875,3.84375 C13.9459228,3.84375 14.15625,4.05407716 14.15625,4.3125 C14.15625,4.57092284 13.9459228,4.78125 13.6875,4.78125 C13.4290772,4.78125 13.21875,4.57092284 13.21875,4.3125 C13.21875,4.05407716 13.4290772,3.84375 13.6875,3.84375 Z" id="Shape" fill="url(#linearGradient-1)"></path>
                </g>
            </g>
        </g>
    </g>
</svg>