<?xml version="1.0" encoding="UTF-8"?>
<svg width="141px" height="99px" viewBox="0 0 141 99" version="1.1" xmlns="http://www.w3.org/2000/svg" xmlns:xlink="http://www.w3.org/1999/xlink">
    <!-- Generator: sketchtool 51.3 (57544) - http://www.bohemiancoding.com/sketch -->
    <title>806B148C-2755-4668-96E9-98F3CB407C03</title>
    <desc>Created with sketchtool.</desc>
    <defs>
        <polyline id="path-1" points="5.82867088e-16 0.423037434 168 0.423037434 168 120 0 120"></polyline>
        <polyline id="path-3" points="5.82867088e-16 0.423037434 168 0.423037434 168 120 0 120"></polyline>
        <polyline id="path-5" points="5.82867088e-16 0.423037434 168 0.423037434 168 120 0 120"></polyline>
        <polygon id="path-7" points="0 0.327091819 168 0.327091819 168 120 0 120"></polygon>
        <polyline id="path-9" points="5.82867088e-16 0.423037434 168 0.423037434 168 120 0 120"></polyline>
        <polyline id="path-11" points="5.82867088e-16 0.423037434 168 0.423037434 168 120 0 120"></polyline>
        <polyline id="path-13" points="5.82867088e-16 0.423037434 168 0.423037434 168 120 0 120"></polyline>
        <polyline id="path-15" points="5.82867088e-16 0.423037434 168 0.423037434 168 120 0 120"></polyline>
        <polyline id="path-17" points="5.82867088e-16 0.423037434 168 0.423037434 168 120 0 120"></polyline>
        <polyline id="path-19" points="5.82867088e-16 0.423037434 168 0.423037434 168 120 0 120"></polyline>
        <polyline id="path-21" points="5.82867088e-16 0.423037434 168 0.423037434 168 120 0 120"></polyline>
        <polyline id="path-23" points="5.82867088e-16 0.423037434 168 0.423037434 168 120 0 120"></polyline>
        <polyline id="path-25" points="5.82867088e-16 0.423037434 168 0.423037434 168 120 0 120"></polyline>
        <polyline id="path-27" points="5.82867088e-16 0.423037434 168 0.423037434 168 120 0 120"></polyline>
        <polyline id="path-29" points="5.82867088e-16 0.423037434 168 0.423037434 168 120 0 120"></polyline>
        <polyline id="path-31" points="4.4922929e-15 0.423037434 168 0.423037434 168 120 0 120"></polyline>
    </defs>
    <g id="Desktop" stroke="none" stroke-width="1" fill="none" fill-rule="evenodd">
        <g id="Newsletter_V2" transform="translate(-78.000000, -63.000000)">
            <g id="logomarcaoficialsite" transform="translate(64.000000, 56.000000)">
                <g id="Group">
                    <polygon id="Shape" fill="#326BB4" fill-rule="nonzero" points="150.333817 103.749592 133.465467 97.9657814 134.976736 69.6319444 154.303922 70.6976677"></polygon>
                    <polygon id="Shape" fill="#FBAD18" fill-rule="nonzero" points="135.549312 101.867121 108.06867 102.683415 103.249707 76.6391364 133.332748 70.6981209"></polygon>
                    <polygon id="Shape" fill="#F7953A" fill-rule="nonzero" points="104.577498 103.749592 80.5364882 99.4495033 80.3274071 73.0632379 107.417398 72.8304739"></polygon>
                    <polygon id="Shape" fill="#83B541" fill-rule="nonzero" points="81.4779478 102.683415 63.8949859 98.005842 63.6566433 69.791484 83.4531753 69.6319444"></polygon>
                    <polygon id="Shape" fill="#326BB4" fill-rule="nonzero" points="64.1956696 99.9768373 44.3084034 102.683415 40.734343 77.1583308 64.698566 73.8966503"></polygon>
                    <polygon id="Shape" fill="#EF3931" fill-rule="nonzero" points="45.9439567 105.881944 18.1015406 105.877941 14.6862745 75.7551628 42.9850002 74.9628268"></polygon>
                    <g id="Clipped">
                        <mask id="mask-2" fill="white">
                            <use xlink:href="#path-1"></use>
                        </mask>
                        <g id="SVGID_1_"></g>
                        <path d="M27.0753444,99.0533473 C24.9082827,99.0533473 23.1646532,98.5353859 21.8444561,97.4997064 C20.524019,96.4642701 19.8642803,95.1023406 19.8642803,93.4144044 C19.8642803,91.6306124 20.4594846,90.2032383 21.6506128,89.131552 C22.8415012,88.0603523 24.5781734,87.3869295 26.8596698,87.1112836 L30.9279786,86.6441695 C31.990038,86.5247148 32.8726485,86.3210822 33.57581,86.0335151 C33.8773705,85.9140604 34.1100784,85.6985067 34.275133,85.3870973 C34.4401876,85.0761745 34.5013634,84.7586829 34.4584204,84.4355956 C34.3720546,83.8847903 34.0347482,83.4541695 33.4467411,83.1425168 C32.7433397,82.7715017 31.7316603,82.5858725 30.4114632,82.5858725 C29.2344893,82.5858725 28.316133,82.8255117 27.6563943,83.3043037 C26.9959359,83.7830956 26.644715,84.4596812 26.601772,85.3335738 L20.6821164,85.3335738 C20.8114252,83.0471477 21.7439359,81.3351258 23.4801283,80.1975084 C25.2165606,79.0601342 27.7638717,78.4913255 31.1218219,78.4913255 C34.0347482,78.4913255 36.3342375,79.0036913 38.0207696,80.0281795 C39.7068219,81.0529111 40.5500879,82.4520638 40.5500879,84.2253943 L40.5500879,95.1539178 C40.5500879,96.0287836 40.6359739,96.642844 40.8082257,96.9963423 C40.9807173,97.3500839 41.324981,97.6286493 41.8414964,97.8322819 L41.8414964,97.8500419 L41.8414964,98.5504698 L38.5048979,98.5504698 L35.1687791,98.5504698 L35.1687791,98.5327097 C34.8960071,97.7425084 34.7165582,96.9703104 34.6306722,96.2161158 L34.6088409,96.1803523 C32.6716081,98.0957634 30.1602827,99.0533473 27.0753444,99.0533473 M34.5013634,91.3313674 L34.5013634,89.0865436 C33.7838076,89.4217953 32.8366627,89.6911158 31.6599287,89.894505 L29.3784323,90.2538423 C28.3022185,90.4214681 27.4841425,90.7294715 26.9244442,91.1788255 C26.3649857,91.627693 26.0847767,92.1933389 26.0847767,92.8757634 C26.0847767,93.6542869 26.3359572,94.264698 26.8385582,94.7074832 C27.3404394,95.1505117 28.043601,95.3716611 28.9478029,95.3716611 C30.9279786,95.3716611 32.5065534,94.7911745 33.6835273,93.6302013 C33.9128765,93.4024832 34.1064798,93.0674748 34.2645772,92.624203 C34.4224347,92.1816611 34.5013634,91.7505537 34.5013634,91.3313674" id="Shape" fill="#FFFFFF" fill-rule="nonzero" mask="url(#mask-2)"></path>
                    </g>
                    <g id="Clipped">
                        <mask id="mask-4" fill="white">
                            <use xlink:href="#path-3"></use>
                        </mask>
                        <g id="SVGID_1_"></g>
                        <path d="M47.7388409,79.0119631 L50.6664014,79.0119631 L53.6153135,79.0119631 L53.6153135,82.5141023 C53.8305083,82.1311661 54.0747316,81.7596644 54.3472637,81.4008138 C55.7962898,79.4613171 57.669228,78.4915688 59.9655986,78.4915688 L61.3644846,78.5093289 L61.3644846,83.7711745 C60.8191805,83.7234899 60.2023848,83.6994044 59.5133777,83.6994044 C57.6332423,83.6994044 56.2307577,84.0886661 55.3052043,84.8664597 C54.3796508,85.6449832 53.9168741,86.8239597 53.9168741,88.4043624 L53.9168741,98.5507131 L50.8386532,98.5507131 L47.7388409,98.5507131 L47.7388409,79.0119631 Z" id="Shape" fill="#FFFFFF" fill-rule="nonzero" mask="url(#mask-4)"></path>
                    </g>
                    <g id="Clipped">
                        <mask id="mask-6" fill="white">
                            <use xlink:href="#path-5"></use>
                        </mask>
                        <g id="SVGID_1_"></g>
                        <path d="M78.2686698,98.6582466 C77.235399,98.7300168 75.9655819,98.7657802 74.4584988,98.7657802 C72.2772827,98.7657802 70.7092637,98.4397735 69.7551615,97.7872735 C68.8008195,97.1347735 68.3238884,96.06625 68.3238884,94.581703 L68.3238884,82.6218792 L65.0736556,82.6218792 L65.0736556,79.0122064 L68.3238884,79.0122064 L68.3238884,73.750604 L74.5014418,73.750604 L74.5014418,79.0122064 L78.2686698,79.0122064 L78.2686698,82.6218792 L74.5014418,82.6218792 L74.5014418,93.7199748 C74.5014418,94.1746812 74.6631378,94.4741695 74.9860499,94.6174664 C75.3087221,94.76125 75.9794964,94.8330201 76.9986128,94.8330201 L78.2686698,94.8330201 L78.2686698,98.6582466 Z" id="Shape" fill="#FFFFFF" fill-rule="nonzero" mask="url(#mask-6)"></path>
                    </g>
                    <g id="Clipped">
                        <mask id="mask-8" fill="white">
                            <use xlink:href="#path-7"></use>
                        </mask>
                        <g id="SVGID_1_"></g>
                        <path d="M96.1295962,83.0527433 C95.3832518,82.5977936 94.3922043,82.3703188 93.1574133,82.3703188 C91.9653254,82.3703188 91.0354537,82.5408641 90.3677981,82.882198 C89.6999026,83.2230453 89.3661948,83.6989178 89.3661948,84.3095721 C89.3661948,84.7406795 89.7462043,85.1116946 90.5071829,85.4228607 C91.2532874,85.722349 92.5811615,86.0515185 94.4903254,86.4108557 C98.2798646,87.1171225 100.813261,87.8895638 102.090995,88.7272064 C103.371848,89.5653356 104.012394,90.8822567 104.012394,92.6779698 C104.012394,94.5936242 103.083002,96.1348574 101.224219,97.302156 C99.3656746,98.4694547 96.9148052,99.053104 93.8723302,99.053104 C90.2691971,99.053104 87.4956556,98.4784564 85.5507458,97.3291611 C83.606076,96.1796225 82.5689667,94.5038507 82.4401378,92.3008725 L88.7254086,92.3008725 C88.7685914,93.1983641 89.2457625,93.902198 90.1571615,94.4109144 C91.0688005,94.9198742 92.3064703,95.174354 93.8713705,95.174354 C95.1056817,95.174354 96.0710594,94.9977265 96.7670238,94.6444715 C97.4629881,94.2914597 97.8115701,93.7975839 97.8115701,93.162844 C97.8115701,92.7200587 97.4745036,92.3429614 96.8006105,92.031552 C96.1257577,91.7325503 94.9415867,91.4269799 93.2478575,91.1155705 C89.2863064,90.3735403 86.6382352,89.5891779 85.3041235,88.7632131 C83.9709715,87.9489262 83.3047553,86.6860151 83.3047553,84.9739933 C83.3047553,83.0344966 84.169133,81.4694211 85.8978884,80.2780369 C87.6266437,79.0866527 89.9045416,78.4908389 92.7308622,78.4908389 C95.9158409,78.4908389 98.4842637,79.0744883 100.435891,80.2417869 C102.387038,81.4090856 103.362732,82.9508054 103.362732,84.8659732 L97.2499525,84.8659732 C97.2499525,84.1122651 96.8761805,83.507693 96.1295962,83.0527433 Z" id="Shape" fill="#FFFFFF" fill-rule="nonzero" mask="url(#mask-8)"></path>
                    </g>
                    <g id="Clipped">
                        <mask id="mask-10" fill="white">
                            <use xlink:href="#path-9"></use>
                        </mask>
                        <g id="SVGID_1_"></g>
                        <path d="M112.201791,96.305646 C110.041926,94.4741695 108.962594,92.0021141 108.962594,88.8892366 C108.962594,85.7043456 110.041926,83.175604 112.201791,81.301552 C114.361416,79.4279866 117.271463,78.4913255 120.930734,78.4913255 C124.618553,78.4913255 127.538917,79.4279866 129.691584,81.301552 C131.844252,83.1753607 132.920466,85.7043456 132.920466,88.8892366 C132.920466,92.0021141 131.844252,94.4741695 129.691584,96.305646 C127.538917,98.1373658 124.618553,99.053104 120.930734,99.053104 C117.271463,99.053104 114.361416,98.1376091 112.201791,96.305646 M125.127872,93.2348574 C126.089651,92.2291023 126.57042,90.762802 126.57042,88.8352265 C126.57042,86.8597232 126.089651,85.3600923 125.127872,84.3368205 C124.166333,83.3133054 122.766967,82.8011829 120.930734,82.8011829 C119.093781,82.8011829 117.698014,83.3130621 116.743912,84.3368205 C115.78933,85.3600923 115.312639,86.8597232 115.312639,88.8352265 C115.312639,90.762802 115.78909,92.2291023 116.743912,93.2348574 C117.698254,94.2403691 119.093781,94.7432466 120.930734,94.7432466 C122.766967,94.7432466 124.166333,94.2403691 125.127872,93.2348574" id="Shape" fill="#FFFFFF" fill-rule="nonzero" mask="url(#mask-10)"></path>
                    </g>
                    <g id="Clipped">
                        <mask id="mask-12" fill="white">
                            <use xlink:href="#path-11"></use>
                        </mask>
                        <g id="SVGID_1_"></g>
                        <polygon id="Shape" fill="#FFFFFF" fill-rule="nonzero" mask="url(#mask-12)" points="139.226608 72.152198 142.304829 72.152198 145.404162 72.152198 145.404162 98.5504698 142.326181 98.5504698 139.226608 98.5504698"></polygon>
                    </g>
                    <g id="Clipped">
                        <mask id="mask-14" fill="white">
                            <use xlink:href="#path-13"></use>
                        </mask>
                        <g id="SVGID_1_"></g>
                        <path d="M45.9083658,61.6484564 C47.3233254,61.589094 48.7529192,61.7625587 50.1474869,61.3757299 C50.4025059,61.3584564 50.6575249,61.3406963 50.9125439,61.3231795 C51.2894347,61.3122315 51.6663254,61.3015268 52.0432162,61.2905789 C52.6403397,61.3309648 53.2386627,61.3840017 53.7950024,61.0794044 C53.7950024,61.0794044 53.7964418,61.0789178 53.7971615,61.0786745 C53.9593373,61.0684564 54.1215131,61.0582383 54.2836888,61.0480201 C54.6615392,61.032693 55.0393895,61.0171225 55.4172399,61.001552 C55.9455107,61.0258809 56.4752209,61.063104 56.9759026,60.8619044 C57.0337197,60.8451174 57.0908171,60.8222483 57.1459952,60.785755 C57.4120499,60.7667785 57.6783444,60.7480453 57.944399,60.7290688 C58.4458005,60.769698 58.9479216,60.8164094 59.3941449,60.5006208 L59.3951045,60.5001342 C59.7691164,60.5018372 60.194228,60.5383305 60.1762352,59.9841191 C60.1644798,59.622349 59.7981449,59.5145721 59.5632779,59.575151 C58.8066176,59.7709983 58.1499976,59.3153188 57.4322019,59.3189681 C57.2832209,59.2527936 57.1620689,59.2124077 57.0603492,59.1909983 C56.1779786,58.9426007 55.2610618,59.0574329 54.3587791,59.0155872 L54.359019,59.0155872 C53.2540166,58.6423826 52.1089501,58.7837332 50.9777981,58.7455369 C50.1381306,58.3952013 49.2593587,58.5046812 48.3885036,58.5202517 C48.1063753,58.5144128 47.824247,58.5080872 47.5421188,58.5024916 C47.278943,58.4874077 47.0155273,58.4728104 46.7523515,58.4579698 C45.819361,58.0937668 44.8506247,58.2295218 43.8905249,58.2470386 C43.2334252,58.2348742 42.5765653,58.2231963 41.9197055,58.2115185 C41.5689644,58.1981376 41.2182233,58.185 40.8674822,58.1716191 C39.0353278,57.857047 37.2031734,57.7706795 35.3712589,58.170646 L35.3698195,58.1708893 C33.3550974,58.3183221 32.6039549,58.8338507 32.6195487,60.0588087 C32.6356223,61.3061493 33.4527387,61.8717953 35.3738979,61.9613255 C35.4660214,61.9654614 35.5593444,61.944052 35.6521876,61.9343205 C37.0155677,62.2771141 38.3789477,62.2277265 39.741848,61.934807 C39.741848,61.934807 39.7435273,61.9345638 39.744247,61.9345638 C41.8016722,61.902693 43.8684537,62.0734815 45.9083658,61.6484564 M52.0374584,60.4899161 C52.023304,60.5181376 52.0062708,60.5427097 51.9877981,60.564849 C51.9846793,60.5424664 51.9818005,60.5205705 51.9765226,60.495755 C51.9969145,60.4935654 52.0170665,60.4916191 52.0374584,60.4899161 M48.9438836,59.3369715 C48.9318884,59.3372148 48.9196532,59.3372148 48.9074181,59.3372148 C48.9071781,59.323104 48.9074181,59.3080201 48.9066983,59.294396 C48.9189335,59.3085067 48.9326081,59.321401 48.9438836,59.3369715 M42.9546556,58.6552768 C42.9858432,58.6869044 43.0146318,58.7233977 43.0386223,58.7698658 C43.0093539,58.7698658 42.9798456,58.7698658 42.9503373,58.7701091 C42.9546556,58.7275336 42.9553753,58.6903104 42.9546556,58.6552768" id="Shape" fill="#FBAD18" fill-rule="nonzero" mask="url(#mask-14)"></path>
                    </g>
                    <g id="Clipped">
                        <mask id="mask-16" fill="white">
                            <use xlink:href="#path-15"></use>
                        </mask>
                        <g id="SVGID_1_"></g>
                        <path d="M107.798575,61.5883641 L106.824081,55.3584732 L106.824321,55.3584732 C106.735556,54.2597819 106.424639,53.222156 105.986333,52.2195638 C105.508202,50.5654446 104.751781,49.0504866 103.77129,47.6467114 C102.892758,46.021057 101.791114,44.5776258 100.383352,43.3847819 C99.9544014,42.6123406 99.20038,42.1834228 98.5543159,41.6523238 C91.2933515,35.6854279 80.0209359,34.9672399 72.5625297,39.9784983 C70.9647625,40.855797 69.5030214,41.9111829 68.314772,43.3234732 C67.9326033,43.7110319 67.5501948,44.0985906 67.1680261,44.4863926 C65.5551449,46.0957466 64.4215938,48.0245386 63.524829,50.1109815 C62.7688884,51.1695302 62.4637292,52.4022735 62.1935962,53.6488842 C62.2398979,53.6990017 62.2607696,53.7654195 62.2751639,53.8359732 C62.2480546,53.7736913 62.2209454,53.7114094 62.1935962,53.6488842 C61.886038,54.572651 61.5055487,55.4808473 61.620943,56.492198 L61.6211829,56.492198 C61.5998314,56.7410822 61.5787197,56.9902097 61.5576081,57.239094 C61.2020689,57.9071644 61.2881948,59.9537081 61.3119454,60.6602181 C61.2303777,62.4758809 73.473209,67.7958725 83.8512589,63.0369044 C99.2531591,55.9739933 108.26615,63.7504698 107.798575,61.5883641" id="Shape" fill="#FBAD18" fill-rule="nonzero" mask="url(#mask-16)"></path>
                    </g>
                    <g id="Clipped">
                        <mask id="mask-18" fill="white">
                            <use xlink:href="#path-17"></use>
                        </mask>
                        <g id="SVGID_1_"></g>
                        <path d="M48.3940214,26.4146728 C50.5862732,28.7945218 52.9747672,30.9651426 55.4229976,33.0691023 C55.7821354,33.3878104 56.1412732,33.7067617 56.5004109,34.0254698 C57.5284038,35.2540772 58.8027791,36.1936577 60.0632399,37.1497819 C60.7395321,37.9054362 61.4371758,38.6357886 62.3262637,39.1430453 L62.3262637,39.1432886 C63.4442209,40.4375839 64.88581,41.3389681 66.2002494,42.3921644 C66.6416746,42.7461493 67.2985344,43.1882047 67.130601,41.9707886 C66.4727815,40.7806208 65.6021663,39.7636745 64.6384679,38.8226342 C63.9734513,37.4439178 62.658772,36.6174664 61.8087886,35.3959144 C61.1533682,34.6397735 60.4979477,33.8836326 59.8422874,33.1274916 C58.9426437,31.7692114 57.6838622,30.756401 56.5601473,29.6134312 L56.5599074,29.6134312 C56.5140855,28.7152097 55.6818551,28.4480789 55.1924489,27.9267114 C53.5147933,26.14 52.0206651,24.1355453 49.8907886,22.8529279 C49.2720736,22.480453 48.4854252,21.731854 47.7748266,22.8276258 C46.9490736,22.9344295 47.0884584,23.6136913 47.1486746,24.1009983 C47.2607102,25.0118708 47.7930594,25.7624161 48.3940214,26.4146728 M54.235228,29.9102433 C54.2525012,29.9309228 54.2700143,29.9513591 54.2856081,29.9742282 C54.2661758,29.9744715 54.2465036,29.9747148 54.2268314,29.9749581 C54.2292304,29.9535487 54.2340285,29.9304362 54.235228,29.9102433" id="Shape" fill="#FBAD18" fill-rule="nonzero" mask="url(#mask-18)"></path>
                    </g>
                    <g id="Clipped">
                        <mask id="mask-20" fill="white">
                            <use xlink:href="#path-19"></use>
                        </mask>
                        <g id="SVGID_1_"></g>
                        <path d="M43.0410214,44.422651 C43.7170736,44.9136074 44.514038,45.1006963 45.2896508,45.3408221 C46.4541496,45.9648574 47.7172494,46.3224916 48.9577981,46.7414346 C50.0779145,47.1294799 51.1982708,47.5175252 52.3183872,47.9055705 C53.6635344,48.5651258 55.0981663,48.9534144 56.5342375,49.338297 C57.9861425,49.8063842 59.4344489,50.2863926 60.8933112,50.7320973 C61.1845558,50.8211409 61.6281401,50.9598154 61.7893563,50.6362416 C62.0203848,50.1735067 61.5444133,49.979849 61.2351758,49.8185487 C59.6549216,48.9952601 58.0617126,48.1980034 56.4728219,47.3915017 C55.3327933,46.3716359 53.8732114,45.9935654 52.5328622,45.3763423 C49.9320523,43.813943 47.1717055,42.5889849 44.3717743,41.4574497 C42.6617316,40.7662668 41.3758409,40.9370554 41.1443325,41.8858809 C40.7650428,43.4395218 42.0149477,43.8752517 43.0410214,44.422651 M44.8103207,42.7578272 C44.8266342,42.8081879 44.844867,42.8634144 44.8635796,42.9205872 C44.8167981,42.8570889 44.7772138,42.7935906 44.7520238,42.7296057 C44.7712162,42.739094 44.7904086,42.7490688 44.8103207,42.7578272" id="Shape" fill="#FBAD18" fill-rule="nonzero" mask="url(#mask-20)"></path>
                    </g>
                    <g id="Clipped">
                        <mask id="mask-22" fill="white">
                            <use xlink:href="#path-21"></use>
                        </mask>
                        <g id="SVGID_1_"></g>
                        <path d="M93.5981188,37.1806795 C94.0760095,37.3891779 94.2410641,36.8926258 94.3965226,36.592651 C95.3830119,34.6913507 96.339753,32.7742366 97.3058504,30.8622315 L97.3058504,30.8619883 C98.5804656,29.2572567 98.7668717,27.1085319 99.9364086,25.45125 L99.9366485,25.45125 C100.902506,23.9486997 101.259724,22.1688003 102.084758,20.6022651 C102.566967,19.8886997 102.799195,19.0744128 102.931862,18.2401762 C103.069808,17.3745554 103.111311,16.4366779 102.084038,16.1041023 C101.16904,15.8077768 100.602625,16.4726846 100.175354,17.1843037 C99.2260499,18.7647064 98.6464394,20.5073826 98.0829026,22.2541946 C97.0349976,24.8778188 96.1051259,27.5425587 95.3662185,30.2737164 L95.3664584,30.2737164 L95.3662185,30.2737164 C94.5503017,32.2231879 94.0810475,34.2848154 93.4740879,36.3019211 C93.3798052,36.6150336 93.2142708,37.0130537 93.5981188,37.1806795" id="Shape" fill="#FBAD18" fill-rule="nonzero" mask="url(#mask-22)"></path>
                    </g>
                    <g id="Clipped">
                        <mask id="mask-24" fill="white">
                            <use xlink:href="#path-23"></use>
                        </mask>
                        <g id="SVGID_1_"></g>
                        <path d="M111.616183,47.6004866 C110.329333,48.1770805 109.042242,48.7546477 107.899575,49.606401 C107.386178,49.7662416 106.657347,49.9628188 106.897732,50.5866107 C107.100931,51.1130872 107.778903,50.6953607 108.232563,50.5642282 C108.530765,50.478104 108.807855,50.3185067 109.094781,50.1919966 C110.687751,50.0275336 112.136537,49.3876846 113.598278,48.7896812 C114.534387,48.490193 115.470976,48.1907047 116.407325,47.8914597 C117.719126,47.4182634 119.030686,46.9450671 120.342007,46.4716275 C122.175361,45.8471057 123.987603,45.1727097 125.680613,44.208557 C126.962425,43.7188171 127.816727,42.6617282 127.377221,41.9359983 C126.784656,40.9579782 125.835352,40.8545805 124.825831,41.3326426 C124.741865,41.3722987 124.648062,41.3890856 124.558577,41.4163339 C123.645019,41.6058557 122.797195,41.9557047 122.021582,42.4826678 L122.021582,42.4829111 L122.021582,42.4826678 C119.62709,43.556057 117.209568,44.5817617 114.934069,45.9086577 C113.740781,46.2957299 112.670086,46.9307131 111.616183,47.6004866 M123.71915,42.8050252 C123.716271,42.8123238 123.713152,42.8193792 123.710273,42.8266779 C123.709074,42.8225419 123.707874,42.8181628 123.706914,42.8140268 C123.710993,42.8111074 123.715311,42.8079446 123.71915,42.8050252" id="Shape" fill="#FBAD18" fill-rule="nonzero" mask="url(#mask-24)"></path>
                    </g>
                    <g id="Clipped">
                        <mask id="mask-26" fill="white">
                            <use xlink:href="#path-25"></use>
                        </mask>
                        <g id="SVGID_1_"></g>
                        <path d="M66.6464727,20.8506628 C66.6483919,20.8533389 66.6493515,20.8560151 66.6512708,20.8586913 C67.4211259,23.1847735 68.5556366,25.3386074 69.6961449,27.4897651 C70.195867,28.8745638 70.877677,30.1683725 71.6153848,31.4344463 C72.0249026,32.4409312 72.4567316,33.435495 73.0816841,34.3298238 L73.081924,34.3298238 C73.4650523,35.0755034 73.8280285,35.8326174 74.2411449,36.5602936 C74.4081188,36.8541862 74.5544608,37.3745805 75.0066817,37.1891946 C75.4872114,36.9921309 75.1578219,36.5376678 75.1115202,36.1917114 C74.8867292,34.5156963 73.953019,33.0647232 73.6353848,31.4176594 L73.6351449,31.4176594 L73.6353848,31.4176594 C73.4948005,30.2902601 72.9365416,29.3105369 72.5546128,28.2682886 C72.0925558,26.9360403 71.6307387,25.6040352 71.1686817,24.2717869 C71.1917126,23.3078775 70.5837933,22.5476007 70.2541639,21.7243121 C69.5951449,20.0774916 69.2487221,18.2596393 68.0300048,16.8719211 C67.7735463,16.0946141 67.2008931,15.8776007 66.5094869,16.1362164 C65.7588242,16.4169715 65.4814941,17.1088842 65.597848,17.8509144 C65.7629026,18.9045973 66.0671021,19.9337081 66.6464727,20.8506628 M72.261209,31.3899245 C72.2636081,31.394547 72.2657672,31.3994128 72.2681663,31.4040352 L72.2681663,31.4042785 L72.2679264,31.4040352 C72.2633682,31.4042785 72.2585701,31.4045218 72.2540119,31.4047651 C72.256171,31.3998993 72.2590499,31.3947903 72.261209,31.3899245" id="Shape" fill="#FBAD18" fill-rule="nonzero" mask="url(#mask-26)"></path>
                    </g>
                    <g id="Clipped">
                        <mask id="mask-28" fill="white">
                            <use xlink:href="#path-27"></use>
                        </mask>
                        <g id="SVGID_1_"></g>
                        <path d="M101.505867,42.5225671 C101.996713,43.1592534 102.324183,42.5262164 102.605352,42.3096896 C103.580325,41.558901 104.50276,40.7373154 105.445107,39.9427349 L105.445107,39.9424916 L105.445107,39.9427349 C107.040235,38.9153272 108.228964,37.4173993 109.659998,36.1997399 C111.233055,35.3599077 112.139176,33.7461745 113.56661,32.7377433 C114.284886,32.5367869 114.396202,31.6886829 114.995005,31.36 C115.886732,30.9213507 116.564703,30.1751846 117.183898,29.4608893 C118.394219,28.0644128 119.934409,26.9447987 120.830933,25.2974916 C121.201107,24.6170134 121.838295,23.7061409 120.676914,23.0390436 C119.88115,21.6878188 118.94624,22.5449245 118.234442,23.0217701 C116.631876,24.0951594 115.320796,25.5225336 114.127029,27.0501426 C112.984601,28.1116107 111.979159,29.2986158 111.022418,30.5303859 C110.36028,31.285797 109.697903,32.0412081 109.036245,32.7966191 C108.612572,33.2873322 108.18866,33.7780453 107.764988,34.2687584 C107.510449,34.5125336 107.176501,34.6979195 107.160188,35.1166191 C105.774257,36.39875 104.568254,37.8412081 103.475247,39.3836577 C102.978644,39.9780117 102.419665,40.5319799 102.009188,41.1822903 C101.766404,41.5671728 100.958164,41.8131376 101.505867,42.5225671 M107.98834,36.230151 C107.9881,36.2362332 107.98762,36.2420721 107.98762,36.2481544 C107.985221,36.2481544 107.982582,36.2481544 107.980183,36.2483977 L107.980183,36.2481544 C107.982822,36.2420721 107.985701,36.2364765 107.98834,36.230151" id="Shape" fill="#FBAD18" fill-rule="nonzero" mask="url(#mask-28)"></path>
                    </g>
                    <g id="Clipped">
                        <mask id="mask-30" fill="white">
                            <use xlink:href="#path-29"></use>
                        </mask>
                        <g id="SVGID_1_"></g>
                        <path d="M82.6426176,18.9530117 C82.6428575,18.9539849 82.6428575,18.9547148 82.6430974,18.9554446 C82.6493349,19.1135822 82.6555724,19.2719631 82.66181,19.4301007 C82.6858005,20.1947567 82.7095511,20.9591695 82.7333017,21.7238255 C82.7095511,22.5081879 82.6042328,23.299849 82.9326627,24.0528272 C82.9329026,24.053557 82.9329026,24.0542869 82.9331425,24.0550168 C82.9583325,24.7929111 82.9835226,25.5308054 83.0087126,26.2686997 C82.9765653,26.7839849 82.9096318,27.3038926 83.2037553,27.7751426 C83.2037553,27.7756292 83.2037553,27.7758725 83.2037553,27.7758725 C83.2167102,29.0876846 83.179285,30.403146 83.5189905,31.6874664 C83.558095,31.6273742 83.5971995,31.5672819 83.636304,31.5069463 C83.6185511,31.5821225 83.5854442,31.646594 83.5189905,31.6874664 C83.5194703,32.1981292 83.3877625,32.7579362 83.5504181,33.2085067 C83.8097553,33.9259648 83.3872827,35.2793792 84.3816888,35.2443456 C85.1757743,35.2163674 84.8794917,33.9444547 84.9632185,33.1956124 L84.9634584,33.1956124 C85.3456271,32.2784144 85.212,31.309396 85.2405487,30.3566779 C85.5397102,29.7849497 85.4876508,29.1728356 85.4411093,28.5614513 C85.4684584,28.0135654 85.4958076,27.4656795 85.5229169,26.9175503 C85.5469074,26.8769211 85.5620214,26.8362919 85.5725772,26.7954195 C85.8283159,26.1691946 85.7469881,25.5089094 85.7273159,24.8549497 C85.7503468,24.2073154 85.7731378,23.5596812 85.7961686,22.9118037 C86.2112043,21.1299581 86.0140024,19.3138087 86.0905321,17.5127433 L86.090772,17.5129866 C86.5336366,15.1759564 86.3232399,12.8138674 86.3074062,10.4646728 C86.2937316,8.49354866 85.3871306,7.20314597 84.2497411,7.24134228 C83.0981971,7.27978188 82.3988741,8.55339765 82.4111093,10.5902097 C82.2606888,12.4949161 82.3640879,14.398406 82.4401378,16.3021393 C82.4228646,17.1928188 82.2877981,18.0925 82.6426176,18.9530117 Z M84.5791306,26.5942198 C84.6359881,26.5878943 84.653981,26.6037081 84.6549406,26.6226846 C84.6501425,26.6336326 84.646304,26.6445805 84.6417458,26.6555285 C84.616076,26.6825336 84.5673753,26.6886158 84.5719335,26.5934899 L84.5791306,26.5942198 Z M84.5141164,26.4560319 C84.5141164,26.4623574 84.5141164,26.4684396 84.5141164,26.4750084 C84.5141164,26.4888758 84.5148361,26.4995805 84.5153159,26.5110151 C84.5061995,26.4954446 84.4975629,26.4798742 84.489886,26.4630872 C84.4975629,26.4611409 84.5054798,26.4591946 84.5141164,26.4560319 Z M84.2821283,14.996896 C84.3209929,14.9964094 84.3569786,14.9915436 84.391285,14.9835151 C84.3850475,15.0513926 84.3785701,15.1180537 84.3725724,15.1900671 C84.3341876,15.1236493 84.3044394,15.0603943 84.2722922,14.9961661 C84.2756508,14.9961661 84.2785297,14.996896 84.2821283,14.996896 Z M83.2212684,15.99 C83.2210285,15.9977852 83.2207886,16.0055705 83.2207886,16.0133557 L83.2207886,16.013599 L83.2205487,16.0133557 C83.2116722,16.0050839 83.2066342,15.9958389 83.1982375,15.9873238 C83.2056746,15.988297 83.2135914,15.9890268 83.2212684,15.99 Z" id="Shape" fill="#FBAD18" fill-rule="nonzero" mask="url(#mask-30)"></path>
                    </g>
                    <g id="Clipped">
                        <mask id="mask-32" fill="white">
                            <use xlink:href="#path-31"></use>
                        </mask>
                        <g id="SVGID_1_"></g>
                        <path d="M135.799565,59.4114178 C135.149663,58.65625 134.354857,58.195948 133.345577,58.1713758 C131.52134,57.7602181 129.697582,57.8733473 127.873824,58.1725923 L127.871185,58.1728356 C126.085572,58.2368205 124.286045,58.0312416 122.517705,58.4482383 C121.104185,58.4973826 119.676511,58.3175923 118.285542,58.7224245 C117.941038,58.7452936 117.596774,58.7681628 117.252511,58.7905453 C117.062266,58.7966275 116.872021,58.802953 116.681777,58.8087919 C115.964221,58.7956544 115.240428,58.714396 114.546382,58.957198 C114.484487,58.9722819 114.422591,58.9939346 114.361416,59.0258054 C112.626183,59.1805369 110.889511,59.3228607 109.156917,59.5007047 C108.853677,59.5320889 108.44104,59.6186997 108.432164,60.0305872 C108.423048,60.4478272 108.807855,60.4933221 109.130767,60.5534144 C110.86528,60.8765017 112.611309,61.0818372 114.377249,61.0762416 C115.654743,61.4937248 116.973981,61.3346141 118.279784,61.3684312 C119.035245,61.7090352 119.831249,61.5903104 120.617658,61.5776594 L120.617898,61.5776594 C120.994309,61.589094 121.3712,61.6010151 121.74785,61.6124497 C123.329544,61.8949077 124.923233,61.9554866 126.524838,61.8815268 L126.524359,61.8815268 L126.524838,61.8815268 C127.159867,61.898557 127.795615,61.9158305 128.430644,61.9326174 C129.975152,62.2301594 131.5199,62.272005 133.064169,61.9352936 L133.066088,61.9350503 C134.182366,61.9788423 135.070254,61.5102685 135.798846,60.6833305 C136.219159,60.2597651 136.221798,59.8357131 135.799565,59.4114178 M116.127116,60.4942953 C116.115841,60.503297 116.103846,60.5091359 116.09281,60.5174077 C116.095689,60.5096225 116.099048,60.503297 116.101686,60.4955117 C116.110563,60.4945386 116.11872,60.4947819 116.127116,60.4942953 L116.130955,60.4770218 C116.135513,60.4767785 116.140071,60.4770218 116.144629,60.4767785 C116.138872,60.4823742 116.132874,60.4886997 116.127116,60.4942953 M116.674819,59.6668708 C116.6729,59.6617617 116.670501,59.6566527 116.668342,59.6515436 C116.6729,59.6505705 116.677219,59.649354 116.682017,59.6481376 C116.679857,59.6544631 116.677458,59.6605453 116.674819,59.6668708 M124.845743,59.045755 C124.851261,59.0233725 124.85366,59.0063423 124.858698,58.9856628 C124.873333,59.0041527 124.887967,59.0241023 124.901401,59.0469715 C124.882689,59.0464849 124.863976,59.0462416 124.845743,59.045755" id="Shape" fill="#FBAD18" fill-rule="nonzero" mask="url(#mask-32)"></path>
                    </g>
                </g>
            </g>
        </g>
    </g>
</svg>